<?xml version="1.0" encoding="utf-8"?>
<!-- Generator: Adobe Illustrator 23.0.6, SVG Export Plug-In . SVG Version: 6.00 Build 0)  -->
<svg version="1.1" id="Layer_1" xmlns="http://www.w3.org/2000/svg" xmlns:xlink="http://www.w3.org/1999/xlink" x="0px" y="0px"
	 viewBox="0 0 24 41" style="enable-background:new 0 0 24 41;" xml:space="preserve">
<style type="text/css">
	.st0{fill:#0183A8;}
</style>
<title>mdpi/Mobile</title>
<desc>Created with Sketch.</desc>
<g id="Page-1">
	<g id="Artboard-Copy-13" transform="translate(-903.000000, -697.000000)">
		<g id="Mobile" transform="translate(903.000000, 697.000000)">
			<path id="Shape" class="st0" d="M19.6,40.6c2.4,0,4.4-1.9,4.4-4.3v-0.6v-0.1v-8.1V8.3V5.9V5.3V4.6c0-2.4-2-4.3-4.4-4.3h-15
				c-2.4,0-4.4,1.9-4.4,4.3v0.6v0.6v29.6v0.1v0.6c0,2.4,2,4.3,4.4,4.3L19.6,40.6L19.6,40.6z M12.1,38.8c-1.1,0-2-0.9-2-1.9
				c0-1.1,0.9-1.9,2-1.9s2,0.9,2,1.9C14.1,37.9,13.2,38.8,12.1,38.8z M3.7,4.8h16.9V33H3.7V4.8z"/>
		</g>
	</g>
</g>
</svg>
