<?xml version="1.0" encoding="utf-8"?>
<!-- Generator: Adobe Illustrator 24.0.1, SVG Export Plug-In . SVG Version: 6.00 Build 0)  -->
<svg version="1.1" id="Layer_1" xmlns="http://www.w3.org/2000/svg" xmlns:xlink="http://www.w3.org/1999/xlink" x="0px" y="0px"
	 viewBox="0 0 15 16" style="enable-background:new 0 0 15 16;" xml:space="preserve">
<style type="text/css">
	.st0{fill:#FF6842;}
</style>
<title>mdpi/Subscribe Forms</title>
<desc>Created with Sketch.</desc>
<g id="Page-1">
	<g id="Artboard-Copy-12" transform="translate(-263.000000, -738.000000)">
		<g id="Subscribe-Forms" transform="translate(263.000000, 738.000000)">
			<g id="Group">
				<path id="Shape" class="st0" d="M13.2,0.1v5.7L15,4.6v10.9H0.1V4.8l1.8,1.1V0.1H13.2z M12.6,0.7H2.5v5.6l5,3.2l5.1-3.4V0.7z"/>
				<path id="Shape_1_" class="st0" d="M7.5,1.7c1.6,0,2.9,1.3,2.9,2.9S9.1,7.5,7.5,7.5S4.6,6.2,4.6,4.6S5.9,1.7,7.5,1.7z M9.3,4
					L8.8,3.5L7.2,5L6.5,4.4L6,4.9L7.2,6L9.3,4z"/>
			</g>
		</g>
	</g>
</g>
</svg>
